<mxfile host="app.diagrams.net" modified="2023-07-17T02:44:41.821Z" agent="Mozilla/5.0 (Windows NT 10.0; Win64; x64) AppleWebKit/537.36 (KHTML, like Gecko) Chrome/114.0.0.0 Safari/537.36" etag="LMvkkikv4WV5Y85L-0is" version="21.6.2" type="device">
  <diagram name="Page-1" id="VpOdNS2st_06RVtZorqU">
    <mxGraphModel dx="765" dy="363" grid="1" gridSize="10" guides="1" tooltips="1" connect="1" arrows="1" fold="1" page="1" pageScale="1" pageWidth="850" pageHeight="1100" math="0" shadow="0">
      <root>
        <mxCell id="0" />
        <mxCell id="1" parent="0" />
        <mxCell id="8b9gNn0RPu0_gTlAqUna-2" style="edgeStyle=orthogonalEdgeStyle;rounded=0;orthogonalLoop=1;jettySize=auto;html=1;" edge="1" parent="1" source="uB5I2PNuQ_w5urLSOuRy-3" target="8b9gNn0RPu0_gTlAqUna-1">
          <mxGeometry relative="1" as="geometry" />
        </mxCell>
        <mxCell id="uB5I2PNuQ_w5urLSOuRy-3" value="YOLO(Detect face)" style="text;html=1;strokeColor=none;fillColor=none;align=center;verticalAlign=middle;whiteSpace=wrap;rounded=0;" parent="1" vertex="1">
          <mxGeometry x="30" y="290" width="70" height="30" as="geometry" />
        </mxCell>
        <mxCell id="uB5I2PNuQ_w5urLSOuRy-9" style="edgeStyle=orthogonalEdgeStyle;rounded=0;orthogonalLoop=1;jettySize=auto;html=1;entryX=0;entryY=0.5;entryDx=0;entryDy=0;" parent="1" source="uB5I2PNuQ_w5urLSOuRy-4" target="uB5I2PNuQ_w5urLSOuRy-5" edge="1">
          <mxGeometry relative="1" as="geometry" />
        </mxCell>
        <mxCell id="uB5I2PNuQ_w5urLSOuRy-4" value="Extract feature" style="text;html=1;strokeColor=none;fillColor=none;align=center;verticalAlign=middle;whiteSpace=wrap;rounded=0;" parent="1" vertex="1">
          <mxGeometry x="230" y="290" width="60" height="30" as="geometry" />
        </mxCell>
        <mxCell id="uB5I2PNuQ_w5urLSOuRy-10" style="edgeStyle=orthogonalEdgeStyle;rounded=0;orthogonalLoop=1;jettySize=auto;html=1;" parent="1" source="uB5I2PNuQ_w5urLSOuRy-5" target="uB5I2PNuQ_w5urLSOuRy-6" edge="1">
          <mxGeometry relative="1" as="geometry" />
        </mxCell>
        <mxCell id="uB5I2PNuQ_w5urLSOuRy-5" value="Training" style="text;html=1;strokeColor=none;fillColor=none;align=center;verticalAlign=middle;whiteSpace=wrap;rounded=0;" parent="1" vertex="1">
          <mxGeometry x="340" y="290" width="60" height="30" as="geometry" />
        </mxCell>
        <mxCell id="uB5I2PNuQ_w5urLSOuRy-6" value="Save data to DB" style="text;html=1;strokeColor=none;fillColor=none;align=center;verticalAlign=middle;whiteSpace=wrap;rounded=0;" parent="1" vertex="1">
          <mxGeometry x="430" y="290" width="60" height="30" as="geometry" />
        </mxCell>
        <mxCell id="8b9gNn0RPu0_gTlAqUna-3" style="edgeStyle=orthogonalEdgeStyle;rounded=0;orthogonalLoop=1;jettySize=auto;html=1;" edge="1" parent="1" source="8b9gNn0RPu0_gTlAqUna-1" target="uB5I2PNuQ_w5urLSOuRy-4">
          <mxGeometry relative="1" as="geometry" />
        </mxCell>
        <mxCell id="8b9gNn0RPu0_gTlAqUna-1" value="Generate dataset" style="text;html=1;strokeColor=none;fillColor=none;align=center;verticalAlign=middle;whiteSpace=wrap;rounded=0;" vertex="1" parent="1">
          <mxGeometry x="140" y="290" width="60" height="30" as="geometry" />
        </mxCell>
      </root>
    </mxGraphModel>
  </diagram>
</mxfile>
